<svg width="509" height="345" viewBox="0 0 509 345" fill="none" xmlns="http://www.w3.org/2000/svg">
<path d="M233.934 169.836C221.654 146.476 218.642 119.775 225.506 94.1684C231.406 72.1463 244.036 53.0674 261.65 39.1955C259.492 39.072 257.318 39 255.126 39C218.182 39 185.454 57.0327 165.25 84.7696C169.559 124.588 197.062 157.552 233.934 169.836Z" fill="white"/>
<path d="M261.599 178.336C235.227 177.29 210.598 166.546 191.852 147.8C175.726 131.675 165.521 111.196 162.317 88.9991C150.744 106.538 144 127.541 144 150.126C144 166.2 147.417 181.475 153.56 195.268C190.202 211.465 232.514 204.131 261.599 178.336Z" fill="white"/>
<path d="M282.791 158.629C268.699 180.946 247.082 196.904 221.475 203.764C212.478 206.176 203.34 207.369 194.263 207.369C181.115 207.369 168.091 204.865 155.769 199.94C172.378 233.004 204.996 256.635 243.46 260.651C275.79 237.007 290.588 196.705 282.791 158.629Z" fill="white"/>
<path d="M276.318 130.423C288.598 153.782 291.61 180.483 284.746 206.09C278.846 228.112 266.216 247.188 248.601 261.063C250.759 261.186 252.934 261.258 255.122 261.258C292.066 261.258 324.794 243.226 344.998 215.489C340.69 175.671 313.189 142.706 276.318 130.423Z" fill="white"/>
<path d="M289.665 99.8077C274.184 103.955 260.206 111.543 248.574 121.919C274.977 122.945 299.636 133.692 318.4 152.455C334.525 168.58 344.73 189.059 347.934 211.256C359.508 193.717 366.252 172.714 366.252 150.129C366.252 134.052 362.832 118.777 356.692 104.981C335.63 95.64 312.208 93.7671 289.665 99.8077Z" fill="white"/>
<path d="M227.461 141.629C241.552 119.312 263.17 103.355 288.776 96.4941C310.809 90.5907 333.654 91.9937 354.486 100.322C337.88 67.2548 305.259 43.624 266.795 39.6072C234.466 63.2518 219.664 103.554 227.461 141.629Z" fill="white"/>
<path d="M88.8841 297.27C89.7841 296.67 90.4241 296.37 90.8041 296.37C91.0041 296.37 91.3641 296.25 91.8841 296.01C92.4041 295.77 92.9141 295.565 93.4141 295.395C93.9141 295.225 94.3041 295.18 94.5841 295.26C95.0841 295.38 95.7941 295.49 96.7141 295.59C98.0541 295.81 98.9341 296.54 99.3541 297.78C99.7741 299.02 99.5941 300.42 98.8141 301.98C98.6141 302.42 98.3441 303.06 98.0041 303.9C97.7441 304.56 97.0941 305.235 96.0541 305.925C95.0141 306.615 94.1841 306.91 93.5641 306.81C93.1241 306.71 92.6341 306.425 92.0941 305.955C91.5541 305.485 91.0941 304.95 90.7141 304.35C90.3341 303.75 90.1441 303.24 90.1441 302.82C90.1441 302.12 90.0441 301.7 89.8441 301.56C89.6641 301.46 89.2141 301.77 88.4941 302.49C87.7741 303.19 86.9941 304.05 86.1541 305.07C85.3141 306.09 84.6741 306.99 84.2341 307.77C80.0141 315.19 78.7341 319.59 80.3941 320.97C80.7341 321.21 80.9041 321.48 80.9041 321.78C80.9041 322.12 81.1891 322.53 81.7591 323.01C82.3291 323.49 82.8941 323.79 83.4541 323.91C84.0941 324.07 84.8941 324.01 85.8541 323.73C86.3541 323.61 86.9741 323.32 87.7141 322.86C88.4541 322.4 89.0991 321.925 89.6491 321.435C90.1991 320.945 90.4741 320.6 90.4741 320.4C90.4741 319.8 90.9141 319.415 91.7941 319.245C92.6741 319.075 93.3541 319.26 93.8341 319.8C94.4341 320.48 94.3041 321.39 93.4441 322.53C92.5841 323.67 91.2441 324.7 89.4241 325.62C88.6041 326.02 87.9041 326.285 87.3241 326.415C86.7441 326.545 85.9141 326.61 84.8341 326.61C83.6541 326.61 82.8241 326.56 82.3441 326.46C81.8841 326.34 81.2841 326.04 80.5441 325.56C79.3241 324.76 78.3641 323.77 77.6641 322.59C77.0841 321.71 76.7341 321.025 76.6141 320.535C76.4941 320.045 76.4241 319.04 76.4041 317.52C76.3641 316.22 76.3791 315.335 76.4491 314.865C76.5191 314.395 76.7291 313.87 77.0791 313.29C77.4291 312.71 77.7041 312.17 77.9041 311.67C78.3441 310.61 78.8641 309.6 79.4641 308.64C81.1241 306.22 81.9541 304.7 81.9541 304.08C81.9541 303.82 82.8691 302.78 84.6991 300.96C86.5291 299.14 87.9241 297.91 88.8841 297.27ZM95.6041 300.72C95.7641 300.44 95.8441 300.25 95.8441 300.15C95.8441 299.71 95.5441 299.73 94.9441 300.21C94.6241 300.47 94.3641 300.79 94.1641 301.17C93.4641 302.25 93.4341 302.79 94.0741 302.79C94.1341 302.79 94.2691 302.67 94.4791 302.43C94.6891 302.19 94.8841 301.92 95.0641 301.62C95.2441 301.32 95.4241 301.02 95.6041 300.72ZM115.322 319.41C115.762 319.03 116.147 318.875 116.477 318.945C116.807 319.015 116.972 319.33 116.972 319.89C116.972 320.05 116.947 320.205 116.897 320.355C116.847 320.505 116.772 320.65 116.672 320.79C116.572 320.93 116.467 321.055 116.357 321.165C116.247 321.275 116.107 321.39 115.937 321.51C115.767 321.63 115.632 321.73 115.532 321.81C115.432 321.89 115.292 321.99 115.112 322.11C114.932 322.23 114.812 322.31 114.752 322.35C114.732 322.35 114.702 322.36 114.662 322.38C114.622 322.4 114.602 322.42 114.602 322.44C114.542 322.48 114.462 322.535 114.362 322.605C114.262 322.675 114.192 322.72 114.152 322.74C113.472 323.22 112.862 323.55 112.322 323.73C111.782 323.87 111.112 323.98 110.312 324.06C108.272 324.28 106.752 323.81 105.752 322.65C104.752 321.49 104.042 319.37 103.622 316.29C103.502 315.31 103.372 314.82 103.232 314.82C103.112 314.82 102.402 315.38 101.102 316.5C100.362 317.18 99.8318 317.72 99.5118 318.12C99.3518 318.28 99.2118 318.49 99.0918 318.75C98.9718 319.01 98.8518 319.32 98.7318 319.68C98.6118 320.04 98.5218 320.28 98.4618 320.4C98.4018 320.54 98.2618 320.87 98.0418 321.39L97.5918 322.5C97.5118 322.68 97.4618 322.975 97.4418 323.385C97.4218 323.795 97.3468 324.12 97.2168 324.36C97.0868 324.6 96.8418 324.75 96.4818 324.81C95.7818 324.91 95.1818 324.6 94.6818 323.88C94.3618 323.44 94.1918 323.11 94.1718 322.89C94.1518 322.67 94.2618 322.26 94.5018 321.66C94.5618 321.54 94.6118 321.42 94.6518 321.3C94.6918 321.2 94.7568 321.015 94.8468 320.745C94.9368 320.475 94.9968 320.295 95.0268 320.205C95.0568 320.115 95.1118 319.955 95.1918 319.725C95.2718 319.495 95.3368 319.32 95.3868 319.2C95.4368 319.08 95.5018 318.92 95.5818 318.72C95.6618 318.52 95.7368 318.35 95.8068 318.21C95.8768 318.07 95.9568 317.91 96.0468 317.73C96.1368 317.55 96.2318 317.37 96.3318 317.19C96.7118 316.51 96.9968 315.465 97.1868 314.055C97.3768 312.645 97.5018 311.84 97.5618 311.64C97.9018 310.22 98.5718 308.19 99.5718 305.55C99.7518 305.05 99.9618 304.295 100.202 303.285C100.442 302.275 100.682 301.335 100.922 300.465C101.162 299.595 101.462 298.7 101.822 297.78C102.182 296.86 102.667 296.08 103.277 295.44C103.887 294.8 104.592 294.38 105.392 294.18C106.072 294.02 106.627 294.055 107.057 294.285C107.487 294.515 107.782 294.86 107.942 295.32C108.102 295.78 108.187 296.325 108.197 296.955C108.207 297.585 108.177 298.15 108.107 298.65C108.037 299.15 107.942 299.63 107.822 300.09C107.602 300.83 107.252 301.69 106.772 302.67C106.292 303.63 105.962 304.32 105.782 304.74C105.502 305.52 105.112 306.31 104.612 307.11C104.372 307.45 104.017 308.015 103.547 308.805C103.077 309.595 102.692 310.17 102.392 310.53C101.972 311.09 101.512 311.64 101.012 312.18C100.952 312.24 100.832 312.355 100.652 312.525C100.472 312.695 100.317 312.855 100.187 313.005C100.057 313.155 99.9718 313.3 99.9318 313.44C99.9118 313.5 99.9268 313.57 99.9768 313.65C100.027 313.73 100.082 313.76 100.142 313.74C100.182 313.74 100.232 313.72 100.292 313.68C100.452 313.56 100.672 313.36 100.952 313.08C101.232 312.8 101.497 312.58 101.747 312.42C101.997 312.26 102.262 312.16 102.542 312.12C102.702 312.1 102.862 312.08 103.022 312.06C103.882 311.96 104.577 312.04 105.107 312.3C105.637 312.56 106.082 313.03 106.442 313.71C106.762 314.41 106.922 315.21 106.922 316.11C106.922 316.91 107.052 317.85 107.312 318.93C107.552 320.01 107.822 320.82 108.122 321.36C108.302 321.68 108.502 321.87 108.722 321.93C108.942 321.99 109.392 321.98 110.072 321.9C110.892 321.8 111.562 321.65 112.082 321.45C113.442 320.73 114.522 320.05 115.322 319.41ZM103.682 301.08C103.642 301.16 103.582 301.275 103.502 301.425C103.422 301.575 103.352 301.715 103.292 301.845C103.232 301.975 103.172 302.1 103.112 302.22C102.672 303.14 102.322 304.1 102.062 305.1C101.962 305.48 101.842 305.865 101.702 306.255C101.562 306.645 101.387 307.11 101.177 307.65C100.967 308.19 100.822 308.56 100.742 308.76C100.622 309.08 100.642 309.29 100.802 309.39C100.882 309.45 100.992 309.41 101.132 309.27C101.452 308.95 101.722 308.595 101.942 308.205C102.162 307.815 102.377 307.36 102.587 306.84C102.797 306.32 102.972 305.92 103.112 305.64C103.692 304.58 104.182 303.25 104.582 301.65C104.622 301.55 104.702 301.365 104.822 301.095C104.942 300.825 105.042 300.585 105.122 300.375C105.202 300.165 105.257 299.93 105.287 299.67C105.317 299.41 105.262 299.24 105.122 299.16C104.982 299.04 104.812 299.1 104.612 299.34C104.452 299.5 104.242 299.87 103.982 300.45C103.902 300.65 103.802 300.86 103.682 301.08ZM134.657 319.14C135.077 318.76 135.452 318.605 135.782 318.675C136.112 318.745 136.287 319.06 136.307 319.62C136.307 319.78 136.282 319.935 136.232 320.085C136.182 320.235 136.102 320.375 135.992 320.505C135.882 320.635 135.772 320.76 135.662 320.88C135.552 321 135.417 321.12 135.257 321.24C135.097 321.36 134.962 321.46 134.852 321.54C134.742 321.62 134.597 321.715 134.417 321.825C134.237 321.935 134.117 322.02 134.057 322.08C133.577 322.4 133.087 322.66 132.587 322.86C132.547 322.88 132.487 322.91 132.407 322.95C132.367 323.05 132.287 323.13 132.167 323.19C132.047 323.25 131.867 323.31 131.627 323.37C131.167 323.63 130.487 323.81 129.587 323.91C128.687 324.01 127.867 324.035 127.127 323.985C126.387 323.935 125.907 323.85 125.687 323.73C125.507 323.61 125.307 323.36 125.087 322.98C124.867 322.6 124.677 322.22 124.517 321.84C124.357 321.46 124.257 321.17 124.217 320.97C124.077 320.39 124.027 319.77 124.067 319.11C124.127 318.43 124.237 317.37 124.397 315.93V315.51C124.397 315.41 124.362 315.335 124.292 315.285C124.222 315.235 124.127 315.2 124.007 315.18C123.887 315.18 123.727 315.18 123.527 315.18C123.287 315.18 123.017 315.14 122.717 315.06C122.417 314.98 122.122 314.905 121.832 314.835C121.542 314.765 121.287 314.73 121.067 314.73C121.087 314.73 121.017 315.045 120.857 315.675C120.697 316.305 120.492 316.97 120.242 317.67C119.992 318.37 119.767 318.78 119.567 318.9C118.847 319.32 118.087 319.62 117.287 319.8C116.247 320.04 116.717 317.77 118.697 312.99C118.737 312.87 118.837 312.62 118.997 312.24C119.157 311.86 119.267 311.595 119.327 311.445C119.387 311.295 119.482 311.055 119.612 310.725C119.742 310.395 119.837 310.125 119.897 309.915C119.957 309.705 120.022 309.45 120.092 309.15C120.162 308.85 120.212 308.565 120.242 308.295C120.272 308.025 120.287 307.75 120.287 307.47C120.287 307.15 120.492 306.58 120.902 305.76C121.312 304.94 121.637 304.44 121.877 304.26C122.197 304.08 122.632 304.015 123.182 304.065C123.732 304.115 124.097 304.24 124.277 304.44C124.517 304.74 124.517 305.9 124.277 307.92C124.097 309.24 124.017 310.09 124.037 310.47C124.057 310.87 124.167 311.19 124.367 311.43C124.607 311.63 124.817 311.725 124.997 311.715C125.177 311.705 125.517 311.55 126.017 311.25C126.757 310.83 127.292 310.63 127.622 310.65C127.952 310.67 128.257 310.9 128.537 311.34C128.757 311.66 128.857 311.95 128.837 312.21C128.817 312.47 128.667 312.97 128.387 313.71C127.987 314.77 127.627 315.98 127.307 317.34C127.067 318.42 126.992 319.22 127.082 319.74C127.172 320.26 127.497 320.87 128.057 321.57C128.297 321.91 128.487 322.1 128.627 322.14C128.687 322.16 128.792 322.145 128.942 322.095C129.092 322.045 129.252 321.985 129.422 321.915C129.592 321.845 129.707 321.8 129.767 321.78C130.387 321.62 130.797 321.49 130.997 321.39C132.537 320.59 133.757 319.84 134.657 319.14ZM141.289 305.79C140.729 305.93 140.179 305.73 139.639 305.19C139.259 304.81 139.059 304.56 139.039 304.44C139.019 304.32 139.159 304.14 139.459 303.9C139.879 303.6 140.414 303.45 141.064 303.45C141.714 303.45 142.159 303.6 142.399 303.9C142.659 304.24 142.674 304.61 142.444 305.01C142.214 305.41 141.829 305.67 141.289 305.79ZM146.629 320.16C146.769 320.4 146.774 320.63 146.644 320.85C146.514 321.07 146.149 321.43 145.549 321.93C144.609 322.73 143.499 323.46 142.219 324.12C141.259 324.6 140.264 324.795 139.234 324.705C138.204 324.615 137.234 324.32 136.324 323.82C135.414 323.32 134.629 322.67 133.969 321.87C133.029 320.75 132.749 319.26 133.129 317.4C133.169 317.26 133.249 316.78 133.369 315.96C133.489 315.14 133.614 314.415 133.744 313.785C133.874 313.155 134.019 312.74 134.179 312.54C134.359 312.32 134.654 312.17 135.064 312.09C135.474 312.01 135.899 312.005 136.339 312.075C136.779 312.145 137.199 312.275 137.599 312.465C137.999 312.655 138.274 312.91 138.424 313.23C138.574 313.55 138.569 313.91 138.409 314.31C137.949 315.27 137.719 315.94 137.719 316.32C137.719 316.68 137.519 317.13 137.119 317.67C136.779 318.07 136.574 318.555 136.504 319.125C136.434 319.695 136.529 320.07 136.789 320.25C137.009 320.33 137.119 320.58 137.119 321C137.119 321.36 137.379 321.77 137.899 322.23C138.259 322.57 138.544 322.76 138.754 322.8C138.964 322.84 139.349 322.79 139.909 322.65C140.729 322.35 141.779 321.74 143.059 320.82C144.079 320.08 144.854 319.66 145.384 319.56C145.914 319.46 146.329 319.66 146.629 320.16ZM159.589 318.33C160.029 317.95 160.414 317.795 160.744 317.865C161.074 317.935 161.239 318.26 161.239 318.84C161.239 318.96 161.219 319.09 161.179 319.23C161.139 319.37 161.084 319.495 161.014 319.605C160.944 319.715 160.854 319.83 160.744 319.95C160.634 320.07 160.524 320.175 160.414 320.265C160.304 320.355 160.179 320.45 160.039 320.55C159.899 320.65 159.779 320.735 159.679 320.805C159.579 320.875 159.459 320.96 159.319 321.06C159.179 321.16 159.079 321.23 159.019 321.27C158.539 321.59 158.039 321.86 157.519 322.08C157.479 322.1 157.379 322.15 157.219 322.23C156.679 322.79 156.199 323.17 155.779 323.37C155.379 323.53 154.849 323.63 154.189 323.67C153.509 323.87 153.039 323.85 152.779 323.61C152.699 323.61 152.464 323.59 152.074 323.55C151.684 323.51 151.419 323.485 151.279 323.475C151.139 323.465 150.924 323.46 150.634 323.46C150.344 323.46 150.094 323.49 149.884 323.55C149.674 323.61 149.469 323.69 149.269 323.79C149.009 323.95 148.679 324.02 148.279 324C147.879 323.98 147.189 323.9 146.209 323.76C145.509 323.66 144.919 323.59 144.439 323.55C144.339 323.55 144.229 323.55 144.109 323.55C143.989 323.55 143.859 323.545 143.719 323.535C143.579 323.525 143.469 323.49 143.389 323.43C143.169 323.29 142.899 322.75 142.579 321.81C142.399 321.27 142.289 320.71 142.249 320.13C142.209 319.89 142.209 319.7 142.249 319.56C142.349 319.06 142.509 318.75 142.729 318.63C142.809 318.59 142.959 318.55 143.179 318.51C143.399 318.47 143.559 318.4 143.659 318.3C143.839 318.16 143.989 317.93 144.109 317.61C144.229 317.27 144.299 316.92 144.319 316.56C144.339 316.24 144.369 316.03 144.409 315.93C144.489 315.81 144.644 315.68 144.874 315.54C145.104 315.4 145.229 315.32 145.249 315.3C145.489 315.1 145.699 314.83 145.879 314.49C145.959 314.31 146.119 313.75 146.359 312.81C146.579 312.07 146.759 311.31 146.899 310.53C147.039 309.77 147.139 309.12 147.199 308.58C147.299 307.34 147.434 306.61 147.604 306.39C147.774 306.17 148.094 306.065 148.564 306.075C149.034 306.085 149.439 306.22 149.779 306.48C149.939 306.58 150.084 306.745 150.214 306.975C150.344 307.205 150.439 307.41 150.499 307.59C150.559 307.77 150.634 308.02 150.724 308.34C150.814 308.66 150.879 308.87 150.919 308.97C151.279 310.05 151.539 311.05 151.699 311.97C151.759 312.33 151.829 312.855 151.909 313.545C151.989 314.235 152.079 314.86 152.179 315.42C152.279 315.98 152.419 316.5 152.599 316.98C152.919 317.86 153.029 318.65 152.929 319.35C152.869 319.79 152.839 320.2 152.839 320.58C152.839 320.96 152.964 321.27 153.214 321.51C153.464 321.75 153.849 321.85 154.369 321.81C154.589 321.79 154.809 321.74 155.029 321.66C155.249 321.58 155.434 321.5 155.584 321.42C155.734 321.34 155.924 321.21 156.154 321.03C156.384 320.85 156.539 320.725 156.619 320.655C156.699 320.585 156.869 320.43 157.129 320.19C157.429 319.91 157.894 319.545 158.524 319.095C159.154 318.645 159.509 318.39 159.589 318.33ZM148.639 320.37C149.539 320.17 150.069 319.725 150.229 319.035C150.389 318.345 150.219 317.23 149.719 315.69C149.219 314.23 148.909 313.5 148.789 313.5C148.649 313.5 148.529 313.78 148.429 314.34C148.309 314.86 148.159 315.24 147.979 315.48C147.739 315.82 147.359 316.545 146.839 317.655C146.319 318.765 146.099 319.38 146.179 319.5C146.279 319.64 146.479 319.79 146.779 319.95C147.079 320.11 147.404 320.23 147.754 320.31C148.104 320.39 148.399 320.41 148.639 320.37ZM174.524 320.37C174.984 320.05 175.374 319.945 175.694 320.055C176.014 320.165 176.154 320.5 176.114 321.06C176.094 321.2 176.049 321.345 175.979 321.495C175.909 321.645 175.814 321.78 175.694 321.9C175.574 322.02 175.459 322.13 175.349 322.23C175.239 322.33 175.094 322.435 174.914 322.545C174.734 322.655 174.584 322.74 174.464 322.8C174.344 322.86 174.189 322.94 173.999 323.04C173.809 323.14 173.684 323.21 173.624 323.25C173.124 323.51 172.604 323.72 172.064 323.88C172.044 323.9 171.799 324.055 171.329 324.345C170.859 324.635 170.324 324.955 169.724 325.305C169.124 325.655 168.634 325.89 168.254 326.01C167.734 326.19 167.194 326.33 166.634 326.43C166.074 326.53 165.484 326.595 164.864 326.625C164.244 326.655 163.649 326.59 163.079 326.43C162.509 326.27 162.034 326.03 161.654 325.71C161.194 325.29 160.819 324.715 160.529 323.985C160.239 323.255 160.049 322.465 159.959 321.615C159.869 320.765 159.824 319.97 159.824 319.23C159.824 318.49 159.854 317.78 159.914 317.1C159.934 317 160.049 316.145 160.259 314.535C160.469 312.925 160.669 311.345 160.859 309.795L161.144 307.47C160.904 307.33 160.454 307.23 159.794 307.17C159.394 307.15 158.984 307.15 158.564 307.17C157.584 307.17 156.894 307.14 156.494 307.08C156.414 307.06 156.299 307.05 156.149 307.05C155.999 307.05 155.849 307.05 155.699 307.05C155.549 307.05 155.399 307.05 155.249 307.05C155.099 307.05 154.979 307.035 154.889 307.005C154.799 306.975 154.744 306.93 154.724 306.87C154.684 306.55 154.814 306.32 155.114 306.18C155.134 306.16 155.269 306.075 155.519 305.925C155.769 305.775 156.029 305.63 156.299 305.49C156.569 305.35 156.934 305.225 157.394 305.115C157.854 305.005 158.324 304.96 158.804 304.98C160.304 305.12 161.239 305.165 161.609 305.115C161.979 305.065 162.344 304.85 162.704 304.47C163.244 303.97 163.964 302.66 164.864 300.54C164.904 300.46 164.964 300.34 165.044 300.18C165.384 299.38 165.664 298.75 165.884 298.29C166.104 297.83 166.414 297.245 166.814 296.535C167.214 295.825 167.654 295.23 168.134 294.75C168.614 294.27 169.114 293.9 169.634 293.64C171.314 292.84 172.154 292.89 172.154 293.79C172.154 294.31 171.764 295.48 170.984 297.3C170.764 297.8 170.604 298.19 170.504 298.47C170.384 298.83 170.284 299.26 170.204 299.76C170.124 300.26 169.934 300.76 169.634 301.26C169.154 302.1 168.754 302.81 168.434 303.39C168.054 304.07 167.914 304.47 168.014 304.59C168.114 304.75 169.124 304.93 171.044 305.13C172.384 305.27 173.199 305.39 173.489 305.49C173.779 305.59 173.904 305.78 173.864 306.06C173.824 306.44 173.604 306.6 173.204 306.54C173.044 306.52 172.724 306.51 172.244 306.51C171.764 306.53 171.224 306.56 170.624 306.6C170.024 306.64 169.404 306.7 168.764 306.78C168.144 306.86 167.624 306.92 167.204 306.96C166.984 307 166.694 307.64 166.334 308.88C165.974 310.12 165.579 311.625 165.149 313.395C164.719 315.165 164.404 316.35 164.204 316.95C163.184 320.01 163.314 322.11 164.594 323.25C165.174 323.77 165.714 324.02 166.214 324C166.514 324 166.844 323.89 167.204 323.67C167.264 323.59 167.469 323.47 167.819 323.31C168.169 323.15 168.529 323.005 168.899 322.875C169.269 322.745 169.649 322.61 170.039 322.47C170.429 322.33 170.634 322.26 170.654 322.26C172.254 321.62 173.544 320.99 174.524 320.37ZM181.279 305.79C180.719 305.93 180.169 305.73 179.629 305.19C179.249 304.81 179.049 304.56 179.029 304.44C179.009 304.32 179.149 304.14 179.449 303.9C179.869 303.6 180.404 303.45 181.054 303.45C181.704 303.45 182.149 303.6 182.389 303.9C182.649 304.24 182.664 304.61 182.434 305.01C182.204 305.41 181.819 305.67 181.279 305.79ZM186.619 320.16C186.759 320.4 186.764 320.63 186.634 320.85C186.504 321.07 186.139 321.43 185.539 321.93C184.599 322.73 183.489 323.46 182.209 324.12C181.249 324.6 180.254 324.795 179.224 324.705C178.194 324.615 177.224 324.32 176.314 323.82C175.404 323.32 174.619 322.67 173.959 321.87C173.019 320.75 172.739 319.26 173.119 317.4C173.159 317.26 173.239 316.78 173.359 315.96C173.479 315.14 173.604 314.415 173.734 313.785C173.864 313.155 174.009 312.74 174.169 312.54C174.349 312.32 174.644 312.17 175.054 312.09C175.464 312.01 175.889 312.005 176.329 312.075C176.769 312.145 177.189 312.275 177.589 312.465C177.989 312.655 178.264 312.91 178.414 313.23C178.564 313.55 178.559 313.91 178.399 314.31C177.939 315.27 177.709 315.94 177.709 316.32C177.709 316.68 177.509 317.13 177.109 317.67C176.769 318.07 176.564 318.555 176.494 319.125C176.424 319.695 176.519 320.07 176.779 320.25C176.999 320.33 177.109 320.58 177.109 321C177.109 321.36 177.369 321.77 177.889 322.23C178.249 322.57 178.534 322.76 178.744 322.8C178.954 322.84 179.339 322.79 179.899 322.65C180.719 322.35 181.769 321.74 183.049 320.82C184.069 320.08 184.844 319.66 185.374 319.56C185.904 319.46 186.319 319.66 186.619 320.16ZM203.329 320.34C203.709 320.04 204.034 319.915 204.304 319.965C204.574 320.015 204.709 320.28 204.709 320.76C204.709 320.86 204.689 320.965 204.649 321.075C204.609 321.185 204.564 321.285 204.514 321.375C204.464 321.465 204.389 321.56 204.289 321.66C204.189 321.76 204.099 321.85 204.019 321.93C203.939 322.01 203.839 322.095 203.719 322.185C203.599 322.275 203.499 322.345 203.419 322.395C203.339 322.445 203.239 322.51 203.119 322.59C202.999 322.67 202.909 322.73 202.849 322.77C202.469 323.03 202.069 323.25 201.649 323.43C201.609 323.45 201.369 323.57 200.929 323.79L200.779 323.97C200.239 324.49 199.459 324.81 198.439 324.93C197.799 325.01 197.304 325.015 196.954 324.945C196.604 324.875 196.119 324.7 195.499 324.42C194.579 323.98 193.969 323.62 193.669 323.34C193.469 323.18 193.299 323.11 193.159 323.13C193.019 323.15 192.759 323.31 192.379 323.61C191.159 324.49 189.704 324.985 188.014 325.095C186.324 325.205 185.219 324.87 184.699 324.09C184.379 323.59 184.234 322.62 184.264 321.18C184.294 319.74 184.479 318.71 184.819 318.09C185.119 317.55 185.349 317.15 185.509 316.89C185.689 316.63 185.859 316.39 186.019 316.17C186.179 315.93 186.449 315.58 186.829 315.12C188.089 313.56 189.079 312.49 189.799 311.91C190.359 311.47 191.019 311.095 191.779 310.785C192.539 310.475 193.334 310.27 194.164 310.17C194.994 310.07 195.729 310.18 196.369 310.5C197.149 310.9 197.629 311.585 197.809 312.555C197.989 313.525 197.969 314.465 197.749 315.375C197.529 316.285 197.219 317.14 196.819 317.94C196.479 318.7 196.224 319.53 196.054 320.43C195.884 321.33 195.889 321.92 196.069 322.2C196.449 322.96 197.699 323.01 199.819 322.35C199.899 322.33 199.979 322.32 200.059 322.32C200.179 322.28 200.269 322.24 200.329 322.2C201.609 321.54 202.609 320.92 203.329 320.34ZM194.269 314.7C194.489 314.58 194.609 314.48 194.629 314.4C194.649 314.32 194.599 314.22 194.479 314.1C194.239 313.84 193.899 313.67 193.459 313.59C193.019 313.51 192.589 313.53 192.169 313.65C191.749 313.75 191.114 314.15 190.264 314.85C189.414 315.55 188.839 316.15 188.539 316.65C188.139 317.23 187.799 317.75 187.519 318.21C187.179 318.69 186.949 319.39 186.829 320.31C186.709 321.23 186.759 321.83 186.979 322.11C187.179 322.35 187.619 322.47 188.299 322.47C188.979 322.47 189.619 322.36 190.219 322.14C190.799 321.86 191.229 321.44 191.509 320.88C191.989 319.94 192.379 319.18 192.679 318.6C193.199 317.7 193.459 317.09 193.459 316.77C193.459 316.57 193.544 316.365 193.714 316.155C193.884 315.945 193.929 315.72 193.849 315.48C193.749 315.16 193.889 314.9 194.269 314.7ZM201.649 319.86C201.969 319.32 202.589 318.085 203.509 316.155C204.429 314.225 205.219 312.87 205.879 312.09C205.979 311.95 206.089 311.82 206.209 311.7C206.449 311.44 206.779 311.245 207.199 311.115C207.619 310.985 207.999 311 208.339 311.16C208.459 311.24 208.544 311.45 208.594 311.79C208.644 312.13 208.719 312.31 208.819 312.33C208.959 312.35 209.299 312.17 209.839 311.79C210.759 311.15 212.209 310.62 214.189 310.2C214.989 310 215.509 309.92 215.749 309.96C215.989 310 216.289 310.18 216.649 310.5C217.109 310.96 217.349 311.52 217.369 312.18C217.389 312.84 217.169 313.46 216.709 314.04C216.369 314.54 215.929 315.53 215.389 317.01C214.849 318.49 214.579 319.51 214.579 320.07C214.579 320.47 214.714 320.905 214.984 321.375C215.254 321.845 215.584 322.235 215.974 322.545C216.364 322.855 216.719 323.01 217.039 323.01C217.519 323.01 218.529 322.61 220.069 321.81C221.609 321.01 222.819 320.25 223.699 319.53C224.359 319.03 224.829 318.795 225.109 318.825C225.389 318.855 225.529 319.15 225.529 319.71C225.529 319.95 225.424 320.225 225.214 320.535C225.004 320.845 224.729 321.17 224.389 321.51C224.029 321.83 223.609 322.155 223.129 322.485C222.649 322.815 222.159 323.08 221.659 323.28C220.339 323.9 219.389 324.35 218.809 324.63C217.809 325.09 216.924 325.22 216.154 325.02C215.384 324.82 214.479 324.2 213.439 323.16C212.599 322.32 212.104 321.745 211.954 321.435C211.804 321.125 211.729 320.53 211.729 319.65C211.729 318.37 211.959 317.04 212.419 315.66C212.819 314.28 212.979 313.53 212.899 313.41C212.779 313.29 211.969 313.935 210.469 315.345C208.969 316.755 207.499 318.245 206.059 319.815C204.619 321.385 203.899 322.29 203.899 322.53C203.899 322.73 203.774 322.95 203.524 323.19C203.274 323.43 202.969 323.625 202.609 323.775C202.249 323.925 201.929 323.97 201.649 323.91C201.189 323.85 200.869 323.49 200.689 322.83C200.549 322.39 200.529 322 200.629 321.66C200.729 321.32 201.069 320.72 201.649 319.86ZM247.975 306.81C249.195 304.21 249.805 302.7 249.805 302.28C249.805 302.06 249.875 301.87 250.015 301.71C250.155 301.55 250.285 301.39 250.405 301.23C250.545 301.07 250.615 300.87 250.615 300.63C250.455 300.17 249.94 300.075 249.07 300.345C248.2 300.615 247.645 300.86 247.405 301.08C246.605 301.74 245.73 301.945 244.78 301.695C243.83 301.445 243.355 300.88 243.355 300C243.355 299.66 243.775 299.185 244.615 298.575C245.455 297.965 246.125 297.66 246.625 297.66C246.925 297.66 247.605 297.435 248.665 296.985C249.725 296.535 250.295 296.31 250.375 296.31C250.835 296.19 252.395 296.175 255.055 296.265C257.715 296.355 259.715 296.5 261.055 296.7C262.275 296.86 263.605 297.51 265.045 298.65C266.885 299.97 267.785 301.345 267.745 302.775C267.705 304.205 266.755 306.27 264.895 308.97C263.975 310.27 263.245 311.25 262.705 311.91C262.185 312.57 261.75 313.035 261.4 313.305C261.05 313.575 260.725 313.71 260.425 313.71C259.905 313.71 259.415 313.94 258.955 314.4C258.155 315.3 256.67 316.14 254.5 316.92C252.33 317.7 250.615 318.02 249.355 317.88C248.975 317.88 248.65 317.86 248.38 317.82C248.11 317.78 247.855 317.84 247.615 318C247.355 318.14 247.135 318.29 246.955 318.45C246.775 318.59 246.575 318.86 246.355 319.26C246.155 319.68 245.955 320.11 245.755 320.55C245.575 321.01 245.345 321.62 245.065 322.38C244.725 323.38 244.46 324.085 244.27 324.495C244.08 324.905 243.89 325.19 243.7 325.35C243.51 325.51 243.265 325.59 242.965 325.59C242.325 325.59 241.815 325.24 241.435 324.54C241.155 324.06 241.065 323.61 241.165 323.19C241.265 322.77 241.655 321.84 242.335 320.4C243.295 318.34 243.715 317.19 243.595 316.95C243.435 316.77 242.655 316.74 241.255 316.86C240.255 316.92 239.605 316.905 239.305 316.815C239.005 316.725 238.705 316.43 238.405 315.93C238.065 315.41 237.895 315.055 237.895 314.865C237.895 314.675 238.085 314.33 238.465 313.83C238.925 313.17 239.93 312.585 241.48 312.075C243.03 311.565 244.015 311.48 244.435 311.82C244.715 312.02 245.08 312.005 245.53 311.775C245.98 311.545 246.205 311.26 246.205 310.92C246.205 310.64 246.795 309.27 247.975 306.81ZM264.025 302.28C263.865 301.48 263.7 300.97 263.53 300.75C263.36 300.53 262.975 300.24 262.375 299.88C261.695 299.54 260.595 299.3 259.075 299.16C256.935 298.96 255.455 299.06 254.635 299.46C253.815 299.86 253.405 300.67 253.405 301.89C253.405 302.81 253.275 303.345 253.015 303.495C252.755 303.645 252.625 303.95 252.625 304.41C252.625 304.97 251.345 307.84 248.785 313.02C248.225 314.2 248.525 314.79 249.685 314.79C250.465 314.79 251.445 314.54 252.625 314.04C256.985 312.26 260.325 309.56 262.645 305.94C263.345 304.96 263.78 304.23 263.95 303.75C264.12 303.27 264.145 302.78 264.025 302.28ZM283.837 319.41C284.277 319.03 284.662 318.875 284.992 318.945C285.322 319.015 285.487 319.33 285.487 319.89C285.487 320.05 285.462 320.205 285.412 320.355C285.362 320.505 285.287 320.65 285.187 320.79C285.087 320.93 284.982 321.055 284.872 321.165C284.762 321.275 284.622 321.39 284.452 321.51C284.282 321.63 284.147 321.73 284.047 321.81C283.947 321.89 283.807 321.99 283.627 322.11C283.447 322.23 283.327 322.31 283.267 322.35C283.247 322.35 283.217 322.36 283.177 322.38C283.137 322.4 283.117 322.42 283.117 322.44C283.057 322.48 282.977 322.535 282.877 322.605C282.777 322.675 282.707 322.72 282.667 322.74C281.987 323.22 281.377 323.55 280.837 323.73C280.297 323.87 279.627 323.98 278.827 324.06C276.787 324.28 275.267 323.81 274.267 322.65C273.267 321.49 272.557 319.37 272.137 316.29C272.017 315.31 271.887 314.82 271.747 314.82C271.627 314.82 270.917 315.38 269.617 316.5C268.877 317.18 268.347 317.72 268.027 318.12C267.867 318.28 267.727 318.49 267.607 318.75C267.487 319.01 267.367 319.32 267.247 319.68C267.127 320.04 267.037 320.28 266.977 320.4C266.917 320.54 266.777 320.87 266.557 321.39L266.107 322.5C266.027 322.68 265.977 322.975 265.957 323.385C265.937 323.795 265.862 324.12 265.732 324.36C265.602 324.6 265.357 324.75 264.997 324.81C264.297 324.91 263.697 324.6 263.197 323.88C262.877 323.44 262.707 323.11 262.687 322.89C262.667 322.67 262.777 322.26 263.017 321.66C263.077 321.54 263.127 321.42 263.167 321.3C263.207 321.2 263.272 321.015 263.362 320.745C263.452 320.475 263.512 320.295 263.542 320.205C263.572 320.115 263.627 319.955 263.707 319.725C263.787 319.495 263.852 319.32 263.902 319.2C263.952 319.08 264.017 318.92 264.097 318.72C264.177 318.52 264.252 318.35 264.322 318.21C264.392 318.07 264.472 317.91 264.562 317.73C264.652 317.55 264.747 317.37 264.847 317.19C265.227 316.51 265.512 315.465 265.702 314.055C265.892 312.645 266.017 311.84 266.077 311.64C266.417 310.22 267.087 308.19 268.087 305.55C268.267 305.05 268.477 304.295 268.717 303.285C268.957 302.275 269.197 301.335 269.437 300.465C269.677 299.595 269.977 298.7 270.337 297.78C270.697 296.86 271.182 296.08 271.792 295.44C272.402 294.8 273.107 294.38 273.907 294.18C274.587 294.02 275.142 294.055 275.572 294.285C276.002 294.515 276.297 294.86 276.457 295.32C276.617 295.78 276.702 296.325 276.712 296.955C276.722 297.585 276.692 298.15 276.622 298.65C276.552 299.15 276.457 299.63 276.337 300.09C276.117 300.83 275.767 301.69 275.287 302.67C274.807 303.63 274.477 304.32 274.297 304.74C274.017 305.52 273.627 306.31 273.127 307.11C272.887 307.45 272.532 308.015 272.062 308.805C271.592 309.595 271.207 310.17 270.907 310.53C270.487 311.09 270.027 311.64 269.527 312.18C269.467 312.24 269.347 312.355 269.167 312.525C268.987 312.695 268.832 312.855 268.702 313.005C268.572 313.155 268.487 313.3 268.447 313.44C268.427 313.5 268.442 313.57 268.492 313.65C268.542 313.73 268.597 313.76 268.657 313.74C268.697 313.74 268.747 313.72 268.807 313.68C268.967 313.56 269.187 313.36 269.467 313.08C269.747 312.8 270.012 312.58 270.262 312.42C270.512 312.26 270.777 312.16 271.057 312.12C271.217 312.1 271.377 312.08 271.537 312.06C272.397 311.96 273.092 312.04 273.622 312.3C274.152 312.56 274.597 313.03 274.957 313.71C275.277 314.41 275.437 315.21 275.437 316.11C275.437 316.91 275.567 317.85 275.827 318.93C276.067 320.01 276.337 320.82 276.637 321.36C276.817 321.68 277.017 321.87 277.237 321.93C277.457 321.99 277.907 321.98 278.587 321.9C279.407 321.8 280.077 321.65 280.597 321.45C281.957 320.73 283.037 320.05 283.837 319.41ZM272.197 301.08C272.157 301.16 272.097 301.275 272.017 301.425C271.937 301.575 271.867 301.715 271.807 301.845C271.747 301.975 271.687 302.1 271.627 302.22C271.187 303.14 270.837 304.1 270.577 305.1C270.477 305.48 270.357 305.865 270.217 306.255C270.077 306.645 269.902 307.11 269.692 307.65C269.482 308.19 269.337 308.56 269.257 308.76C269.137 309.08 269.157 309.29 269.317 309.39C269.397 309.45 269.507 309.41 269.647 309.27C269.967 308.95 270.237 308.595 270.457 308.205C270.677 307.815 270.892 307.36 271.102 306.84C271.312 306.32 271.487 305.92 271.627 305.64C272.207 304.58 272.697 303.25 273.097 301.65C273.137 301.55 273.217 301.365 273.337 301.095C273.457 300.825 273.557 300.585 273.637 300.375C273.717 300.165 273.772 299.93 273.802 299.67C273.832 299.41 273.777 299.24 273.637 299.16C273.497 299.04 273.327 299.1 273.127 299.34C272.967 299.5 272.757 299.87 272.497 300.45C272.417 300.65 272.317 300.86 272.197 301.08ZM301.523 318.24C301.823 318.4 301.973 318.75 301.973 319.29C301.993 319.91 301.643 320.49 300.923 321.03C300.663 321.21 300.363 321.39 300.023 321.57C299.963 321.59 299.893 321.63 299.813 321.69C299.533 321.85 299.293 321.94 299.093 321.96C298.493 322 297.913 321.76 297.353 321.24C297.213 321.12 297.063 320.91 296.903 320.61L296.813 320.46C296.633 320.16 296.463 319.97 296.303 319.89C296.143 319.81 295.943 319.83 295.703 319.95C295.403 320.11 295.063 320.6 294.683 321.42C294.503 321.84 294.353 322.13 294.233 322.29C293.853 322.85 293.523 323.17 293.243 323.25C292.883 323.43 292.393 323.71 291.773 324.09C291.013 324.55 290.293 324.8 289.613 324.84C288.833 324.9 288.253 324.98 287.873 325.08C287.773 325.1 287.673 325.11 287.573 325.11C287.353 325.11 287.163 325.07 287.003 324.99C286.763 324.89 286.413 324.62 285.953 324.18C285.453 323.72 285.113 323.315 284.933 322.965C284.753 322.615 284.573 322 284.393 321.12C284.093 319.68 284.023 318.525 284.183 317.655C284.343 316.785 284.783 315.77 285.503 314.61C286.423 313.13 287.293 312.06 288.113 311.4C288.933 310.74 289.943 310.27 291.143 309.99C291.723 309.87 292.233 309.66 292.673 309.36C293.373 308.9 293.993 308.73 294.533 308.85C295.053 308.95 295.653 309.36 296.333 310.08C296.693 310.48 296.953 310.8 297.113 311.04C297.273 311.28 297.383 311.51 297.443 311.73C297.503 311.95 297.533 312.27 297.533 312.69C297.533 314.47 297.593 315.85 297.713 316.83C297.773 317.41 297.908 317.855 298.118 318.165C298.328 318.475 298.693 318.85 299.213 319.29L299.303 319.23C299.663 318.99 299.923 318.8 300.083 318.66C300.683 318.2 301.163 318.06 301.523 318.24ZM294.593 313.08C294.593 312.3 294.513 311.87 294.353 311.79C294.313 311.83 294.273 311.88 294.233 311.94C294.133 312.12 294.143 312.53 294.263 313.17C294.343 313.63 294.423 313.92 294.503 314.04C294.563 313.88 294.593 313.56 294.593 313.08ZM293.723 317.7C293.803 317.24 293.793 316.91 293.693 316.71C293.613 316.51 293.363 316.2 292.943 315.78C292.283 315.14 291.953 314.61 291.953 314.19C291.953 313.91 291.863 313.58 291.683 313.2C291.503 312.82 291.323 312.57 291.143 312.45C291.003 312.35 290.883 312.3 290.783 312.3C290.703 312.3 290.633 312.32 290.573 312.36C290.373 312.46 289.963 312.83 289.343 313.47C288.803 314.01 288.298 314.7 287.828 315.54C287.358 316.38 287.013 317.17 286.793 317.91C286.573 318.61 286.533 319.12 286.673 319.44C286.833 319.74 286.923 320.25 286.943 320.97C287.003 321.51 287.083 321.91 287.183 322.17C287.283 322.39 287.433 322.54 287.633 322.62C287.853 322.72 288.213 322.77 288.713 322.77C288.953 322.77 289.153 322.76 289.313 322.74C289.473 322.74 289.623 322.72 289.763 322.68C289.903 322.64 290.033 322.59 290.153 322.53C290.293 322.45 290.433 322.36 290.573 322.26C290.713 322.16 290.883 322.03 291.083 321.87C291.843 321.27 292.273 320.79 292.373 320.43C292.493 320.05 292.733 319.65 293.093 319.23C293.413 318.89 293.623 318.38 293.723 317.7ZM315.501 320.37C315.961 320.05 316.351 319.945 316.671 320.055C316.991 320.165 317.131 320.5 317.091 321.06C317.071 321.2 317.026 321.345 316.956 321.495C316.886 321.645 316.791 321.78 316.671 321.9C316.551 322.02 316.436 322.13 316.326 322.23C316.216 322.33 316.071 322.435 315.891 322.545C315.711 322.655 315.561 322.74 315.441 322.8C315.321 322.86 315.166 322.94 314.976 323.04C314.786 323.14 314.661 323.21 314.601 323.25C314.101 323.51 313.581 323.72 313.041 323.88C313.021 323.9 312.776 324.055 312.306 324.345C311.836 324.635 311.301 324.955 310.701 325.305C310.101 325.655 309.611 325.89 309.231 326.01C308.711 326.19 308.171 326.33 307.611 326.43C307.051 326.53 306.461 326.595 305.841 326.625C305.221 326.655 304.626 326.59 304.056 326.43C303.486 326.27 303.011 326.03 302.631 325.71C302.171 325.29 301.796 324.715 301.506 323.985C301.216 323.255 301.026 322.465 300.936 321.615C300.846 320.765 300.801 319.97 300.801 319.23C300.801 318.49 300.831 317.78 300.891 317.1C300.911 317 301.026 316.145 301.236 314.535C301.446 312.925 301.646 311.345 301.836 309.795L302.121 307.47C301.881 307.33 301.431 307.23 300.771 307.17C300.371 307.15 299.961 307.15 299.541 307.17C298.561 307.17 297.871 307.14 297.471 307.08C297.391 307.06 297.276 307.05 297.126 307.05C296.976 307.05 296.826 307.05 296.676 307.05C296.526 307.05 296.376 307.05 296.226 307.05C296.076 307.05 295.956 307.035 295.866 307.005C295.776 306.975 295.721 306.93 295.701 306.87C295.661 306.55 295.791 306.32 296.091 306.18C296.111 306.16 296.246 306.075 296.496 305.925C296.746 305.775 297.006 305.63 297.276 305.49C297.546 305.35 297.911 305.225 298.371 305.115C298.831 305.005 299.301 304.96 299.781 304.98C301.281 305.12 302.216 305.165 302.586 305.115C302.956 305.065 303.321 304.85 303.681 304.47C304.221 303.97 304.941 302.66 305.841 300.54C305.881 300.46 305.941 300.34 306.021 300.18C306.361 299.38 306.641 298.75 306.861 298.29C307.081 297.83 307.391 297.245 307.791 296.535C308.191 295.825 308.631 295.23 309.111 294.75C309.591 294.27 310.091 293.9 310.611 293.64C312.291 292.84 313.131 292.89 313.131 293.79C313.131 294.31 312.741 295.48 311.961 297.3C311.741 297.8 311.581 298.19 311.481 298.47C311.361 298.83 311.261 299.26 311.181 299.76C311.101 300.26 310.911 300.76 310.611 301.26C310.131 302.1 309.731 302.81 309.411 303.39C309.031 304.07 308.891 304.47 308.991 304.59C309.091 304.75 310.101 304.93 312.021 305.13C313.361 305.27 314.176 305.39 314.466 305.49C314.756 305.59 314.881 305.78 314.841 306.06C314.801 306.44 314.581 306.6 314.181 306.54C314.021 306.52 313.701 306.51 313.221 306.51C312.741 306.53 312.201 306.56 311.601 306.6C311.001 306.64 310.381 306.7 309.741 306.78C309.121 306.86 308.601 306.92 308.181 306.96C307.961 307 307.671 307.64 307.311 308.88C306.951 310.12 306.556 311.625 306.126 313.395C305.696 315.165 305.381 316.35 305.181 316.95C304.161 320.01 304.291 322.11 305.571 323.25C306.151 323.77 306.691 324.02 307.191 324C307.491 324 307.821 323.89 308.181 323.67C308.241 323.59 308.446 323.47 308.796 323.31C309.146 323.15 309.506 323.005 309.876 322.875C310.246 322.745 310.626 322.61 311.016 322.47C311.406 322.33 311.611 322.26 311.631 322.26C313.231 321.62 314.521 320.99 315.501 320.37ZM332.636 318.24C332.936 318.4 333.086 318.75 333.086 319.29C333.106 319.91 332.756 320.49 332.036 321.03C331.776 321.21 331.476 321.39 331.136 321.57C331.076 321.59 331.006 321.63 330.926 321.69C330.646 321.85 330.406 321.94 330.206 321.96C329.606 322 329.026 321.76 328.466 321.24C328.326 321.12 328.176 320.91 328.016 320.61L327.926 320.46C327.746 320.16 327.576 319.97 327.416 319.89C327.256 319.81 327.056 319.83 326.816 319.95C326.516 320.11 326.176 320.6 325.796 321.42C325.616 321.84 325.466 322.13 325.346 322.29C324.966 322.85 324.636 323.17 324.356 323.25C323.996 323.43 323.506 323.71 322.886 324.09C322.126 324.55 321.406 324.8 320.726 324.84C319.946 324.9 319.366 324.98 318.986 325.08C318.886 325.1 318.786 325.11 318.686 325.11C318.466 325.11 318.276 325.07 318.116 324.99C317.876 324.89 317.526 324.62 317.066 324.18C316.566 323.72 316.226 323.315 316.046 322.965C315.866 322.615 315.686 322 315.506 321.12C315.206 319.68 315.136 318.525 315.296 317.655C315.456 316.785 315.896 315.77 316.616 314.61C317.536 313.13 318.406 312.06 319.226 311.4C320.046 310.74 321.056 310.27 322.256 309.99C322.836 309.87 323.346 309.66 323.786 309.36C324.486 308.9 325.106 308.73 325.646 308.85C326.166 308.95 326.766 309.36 327.446 310.08C327.806 310.48 328.066 310.8 328.226 311.04C328.386 311.28 328.496 311.51 328.556 311.73C328.616 311.95 328.646 312.27 328.646 312.69C328.646 314.47 328.706 315.85 328.826 316.83C328.886 317.41 329.021 317.855 329.231 318.165C329.441 318.475 329.806 318.85 330.326 319.29L330.416 319.23C330.776 318.99 331.036 318.8 331.196 318.66C331.796 318.2 332.276 318.06 332.636 318.24ZM325.706 313.08C325.706 312.3 325.626 311.87 325.466 311.79C325.426 311.83 325.386 311.88 325.346 311.94C325.246 312.12 325.256 312.53 325.376 313.17C325.456 313.63 325.536 313.92 325.616 314.04C325.676 313.88 325.706 313.56 325.706 313.08ZM324.836 317.7C324.916 317.24 324.906 316.91 324.806 316.71C324.726 316.51 324.476 316.2 324.056 315.78C323.396 315.14 323.066 314.61 323.066 314.19C323.066 313.91 322.976 313.58 322.796 313.2C322.616 312.82 322.436 312.57 322.256 312.45C322.116 312.35 321.996 312.3 321.896 312.3C321.816 312.3 321.746 312.32 321.686 312.36C321.486 312.46 321.076 312.83 320.456 313.47C319.916 314.01 319.411 314.7 318.941 315.54C318.471 316.38 318.126 317.17 317.906 317.91C317.686 318.61 317.646 319.12 317.786 319.44C317.946 319.74 318.036 320.25 318.056 320.97C318.116 321.51 318.196 321.91 318.296 322.17C318.396 322.39 318.546 322.54 318.746 322.62C318.966 322.72 319.326 322.77 319.826 322.77C320.066 322.77 320.266 322.76 320.426 322.74C320.586 322.74 320.736 322.72 320.876 322.68C321.016 322.64 321.146 322.59 321.266 322.53C321.406 322.45 321.546 322.36 321.686 322.26C321.826 322.16 321.996 322.03 322.196 321.87C322.956 321.27 323.386 320.79 323.486 320.43C323.606 320.05 323.846 319.65 324.206 319.23C324.526 318.89 324.736 318.38 324.836 317.7ZM346.044 320.1C346.484 319.72 346.869 319.565 347.199 319.635C347.529 319.705 347.694 320.03 347.694 320.61C347.694 320.77 347.654 320.94 347.574 321.12C347.494 321.3 347.404 321.455 347.304 321.585C347.204 321.715 347.054 321.865 346.854 322.035C346.654 322.205 346.499 322.33 346.389 322.41C346.279 322.49 346.109 322.605 345.879 322.755C345.649 322.905 345.514 323 345.474 323.04C344.994 323.36 344.494 323.62 343.974 323.82C343.914 323.86 343.684 323.99 343.284 324.21C342.884 324.43 342.454 324.65 341.994 324.87C341.534 325.09 341.124 325.26 340.764 325.38C340.324 325.7 339.754 326.05 339.054 326.43C338.014 327.01 337.324 327.69 336.984 328.47C336.884 328.67 336.744 328.93 336.564 329.25C336.404 329.55 336.214 329.86 335.994 330.18C335.794 330.48 335.564 330.81 335.304 331.17C335.044 331.55 334.814 331.89 334.614 332.19C334.414 332.49 334.204 332.78 333.984 333.06C333.764 333.36 333.604 333.58 333.504 333.72C333.364 333.96 332.919 334.315 332.169 334.785C331.419 335.255 330.664 335.69 329.904 336.09C328.284 336.89 327.264 336.61 326.844 335.25C326.664 334.67 326.574 334.23 326.574 333.93C326.574 333.77 326.609 333.605 326.679 333.435C326.749 333.265 326.824 333.11 326.904 332.97C326.984 332.83 327.099 332.68 327.249 332.52C327.399 332.36 327.529 332.23 327.639 332.13C327.749 332.03 327.889 331.9 328.059 331.74C328.229 331.58 328.354 331.47 328.434 331.41C329.194 330.67 330.214 329.96 331.494 329.28C331.854 329.08 332.384 328.75 333.084 328.29C334.004 327.69 334.544 327.35 334.704 327.27C335.144 327.03 335.694 326.41 336.354 325.41C337.014 324.41 337.264 323.83 337.104 323.67C336.984 323.57 336.464 323.67 335.544 323.97C333.084 324.81 331.514 323.92 330.834 321.3C330.634 320.58 330.704 319.62 331.044 318.42C331.384 317.22 331.874 316.15 332.514 315.21C332.894 314.67 333.299 314.15 333.729 313.65C334.159 313.15 334.659 312.655 335.229 312.165C335.799 311.675 336.379 311.255 336.969 310.905C337.559 310.555 338.194 310.3 338.874 310.14C339.554 309.98 340.204 309.96 340.824 310.08C341.544 310.2 342.084 310.48 342.444 310.92C342.804 311.36 342.989 311.86 342.999 312.42C343.009 312.98 342.954 313.58 342.834 314.22C342.614 315.14 342.349 316.02 342.039 316.86C341.729 317.7 341.464 318.25 341.244 318.51C340.984 318.83 340.854 319.09 340.854 319.29C340.854 319.47 340.584 320.08 340.044 321.12C339.544 322.22 339.294 322.99 339.294 323.43C339.294 323.61 339.304 323.75 339.324 323.85C339.384 323.75 339.599 323.61 339.969 323.43C340.339 323.25 340.789 323.05 341.319 322.83C341.849 322.61 342.204 322.46 342.384 322.38C343.924 321.56 345.144 320.8 346.044 320.1ZM334.344 329.79C334.724 329.15 334.784 328.83 334.524 328.83C334.144 328.83 333.424 329.26 332.364 330.12C331.304 330.98 330.359 331.885 329.529 332.835C328.699 333.785 328.374 334.35 328.554 334.53C328.974 334.93 329.844 334.59 331.164 333.51C332.484 332.43 333.544 331.19 334.344 329.79ZM336.954 320.01C338.094 318.15 338.664 317.11 338.664 316.89C338.664 316.45 338.814 316.005 339.114 315.555C339.414 315.105 339.594 314.57 339.654 313.95C339.734 313.37 339.654 313.04 339.414 312.96C339.154 312.88 338.629 313.085 337.839 313.575C337.049 314.065 336.524 314.5 336.264 314.88C336.184 315 335.969 315.205 335.619 315.495C335.269 315.785 334.904 316.13 334.524 316.53C334.144 316.93 333.864 317.33 333.684 317.73C333.024 319.13 332.774 320.14 332.934 320.76C333.114 321.5 333.424 321.915 333.864 322.005C334.304 322.095 334.944 321.87 335.784 321.33C336.164 321.11 336.554 320.67 336.954 320.01ZM364.667 319.14C365.087 318.76 365.462 318.605 365.792 318.675C366.122 318.745 366.297 319.06 366.317 319.62C366.317 319.78 366.292 319.935 366.242 320.085C366.192 320.235 366.112 320.375 366.002 320.505C365.892 320.635 365.782 320.76 365.672 320.88C365.562 321 365.427 321.12 365.267 321.24C365.107 321.36 364.972 321.46 364.862 321.54C364.752 321.62 364.607 321.715 364.427 321.825C364.247 321.935 364.127 322.02 364.067 322.08C363.587 322.4 363.097 322.66 362.597 322.86C362.557 322.88 362.497 322.91 362.417 322.95C362.377 323.05 362.297 323.13 362.177 323.19C362.057 323.25 361.877 323.31 361.637 323.37C361.177 323.63 360.497 323.81 359.597 323.91C358.697 324.01 357.877 324.035 357.137 323.985C356.397 323.935 355.917 323.85 355.697 323.73C355.517 323.61 355.317 323.36 355.097 322.98C354.877 322.6 354.687 322.22 354.527 321.84C354.367 321.46 354.267 321.17 354.227 320.97C354.087 320.39 354.037 319.77 354.077 319.11C354.137 318.43 354.247 317.37 354.407 315.93V315.51C354.407 315.41 354.372 315.335 354.302 315.285C354.232 315.235 354.137 315.2 354.017 315.18C353.897 315.18 353.737 315.18 353.537 315.18C353.297 315.18 353.027 315.14 352.727 315.06C352.427 314.98 352.132 314.905 351.842 314.835C351.552 314.765 351.297 314.73 351.077 314.73C351.097 314.73 351.027 315.045 350.867 315.675C350.707 316.305 350.502 316.97 350.252 317.67C350.002 318.37 349.777 318.78 349.577 318.9C348.857 319.32 348.097 319.62 347.297 319.8C346.257 320.04 346.727 317.77 348.707 312.99C348.747 312.87 348.847 312.62 349.007 312.24C349.167 311.86 349.277 311.595 349.337 311.445C349.397 311.295 349.492 311.055 349.622 310.725C349.752 310.395 349.847 310.125 349.907 309.915C349.967 309.705 350.032 309.45 350.102 309.15C350.172 308.85 350.222 308.565 350.252 308.295C350.282 308.025 350.297 307.75 350.297 307.47C350.297 307.15 350.502 306.58 350.912 305.76C351.322 304.94 351.647 304.44 351.887 304.26C352.207 304.08 352.642 304.015 353.192 304.065C353.742 304.115 354.107 304.24 354.287 304.44C354.527 304.74 354.527 305.9 354.287 307.92C354.107 309.24 354.027 310.09 354.047 310.47C354.067 310.87 354.177 311.19 354.377 311.43C354.617 311.63 354.827 311.725 355.007 311.715C355.187 311.705 355.527 311.55 356.027 311.25C356.767 310.83 357.302 310.63 357.632 310.65C357.962 310.67 358.267 310.9 358.547 311.34C358.767 311.66 358.867 311.95 358.847 312.21C358.827 312.47 358.677 312.97 358.397 313.71C357.997 314.77 357.637 315.98 357.317 317.34C357.077 318.42 357.002 319.22 357.092 319.74C357.182 320.26 357.507 320.87 358.067 321.57C358.307 321.91 358.497 322.1 358.637 322.14C358.697 322.16 358.802 322.145 358.952 322.095C359.102 322.045 359.262 321.985 359.432 321.915C359.602 321.845 359.717 321.8 359.777 321.78C360.397 321.62 360.807 321.49 361.007 321.39C362.547 320.59 363.767 319.84 364.667 319.14ZM383.329 320.34C383.709 320.04 384.034 319.915 384.304 319.965C384.574 320.015 384.709 320.28 384.709 320.76C384.709 320.86 384.689 320.965 384.649 321.075C384.609 321.185 384.564 321.285 384.514 321.375C384.464 321.465 384.389 321.56 384.289 321.66C384.189 321.76 384.099 321.85 384.019 321.93C383.939 322.01 383.839 322.095 383.719 322.185C383.599 322.275 383.499 322.345 383.419 322.395C383.339 322.445 383.239 322.51 383.119 322.59C382.999 322.67 382.909 322.73 382.849 322.77C382.469 323.03 382.069 323.25 381.649 323.43C381.609 323.45 381.369 323.57 380.929 323.79L380.779 323.97C380.239 324.49 379.459 324.81 378.439 324.93C377.799 325.01 377.304 325.015 376.954 324.945C376.604 324.875 376.119 324.7 375.499 324.42C374.579 323.98 373.969 323.62 373.669 323.34C373.469 323.18 373.299 323.11 373.159 323.13C373.019 323.15 372.759 323.31 372.379 323.61C371.159 324.49 369.704 324.985 368.014 325.095C366.324 325.205 365.219 324.87 364.699 324.09C364.379 323.59 364.234 322.62 364.264 321.18C364.294 319.74 364.479 318.71 364.819 318.09C365.119 317.55 365.349 317.15 365.509 316.89C365.689 316.63 365.859 316.39 366.019 316.17C366.179 315.93 366.449 315.58 366.829 315.12C368.089 313.56 369.079 312.49 369.799 311.91C370.359 311.47 371.019 311.095 371.779 310.785C372.539 310.475 373.334 310.27 374.164 310.17C374.994 310.07 375.729 310.18 376.369 310.5C377.149 310.9 377.629 311.585 377.809 312.555C377.989 313.525 377.969 314.465 377.749 315.375C377.529 316.285 377.219 317.14 376.819 317.94C376.479 318.7 376.224 319.53 376.054 320.43C375.884 321.33 375.889 321.92 376.069 322.2C376.449 322.96 377.699 323.01 379.819 322.35C379.899 322.33 379.979 322.32 380.059 322.32C380.179 322.28 380.269 322.24 380.329 322.2C381.609 321.54 382.609 320.92 383.329 320.34ZM374.269 314.7C374.489 314.58 374.609 314.48 374.629 314.4C374.649 314.32 374.599 314.22 374.479 314.1C374.239 313.84 373.899 313.67 373.459 313.59C373.019 313.51 372.589 313.53 372.169 313.65C371.749 313.75 371.114 314.15 370.264 314.85C369.414 315.55 368.839 316.15 368.539 316.65C368.139 317.23 367.799 317.75 367.519 318.21C367.179 318.69 366.949 319.39 366.829 320.31C366.709 321.23 366.759 321.83 366.979 322.11C367.179 322.35 367.619 322.47 368.299 322.47C368.979 322.47 369.619 322.36 370.219 322.14C370.799 321.86 371.229 321.44 371.509 320.88C371.989 319.94 372.379 319.18 372.679 318.6C373.199 317.7 373.459 317.09 373.459 316.77C373.459 316.57 373.544 316.365 373.714 316.155C373.884 315.945 373.929 315.72 373.849 315.48C373.749 315.16 373.889 314.9 374.269 314.7ZM400.189 319.65C400.629 319.29 401.014 319.145 401.344 319.215C401.674 319.285 401.839 319.6 401.839 320.16C401.839 320.34 401.799 320.52 401.719 320.7C401.639 320.88 401.549 321.035 401.449 321.165C401.349 321.295 401.199 321.445 400.999 321.615C400.799 321.785 400.644 321.91 400.534 321.99C400.424 322.07 400.254 322.185 400.024 322.335C399.794 322.485 399.649 322.58 399.589 322.62C399.129 322.94 398.639 323.2 398.119 323.4C397.739 323.58 397.044 323.77 396.034 323.97C395.024 324.17 394.229 324.27 393.649 324.27C393.169 324.27 392.499 324.105 391.639 323.775C390.779 323.445 390.044 323.14 389.434 322.86C388.824 322.58 388.519 322.47 388.519 322.53C388.519 322.53 388.449 322.53 388.309 322.53C388.169 322.53 388.014 322.52 387.844 322.5C387.674 322.48 387.429 322.575 387.109 322.785C386.789 322.995 386.459 323.32 386.119 323.76C385.619 324.38 385.169 325.225 384.769 326.295C384.369 327.365 384.089 328.04 383.929 328.32C383.729 328.72 383.524 329.18 383.314 329.7C383.104 330.22 382.899 330.66 382.699 331.02C382.499 331.38 382.229 331.76 381.889 332.16C381.589 332.52 381.354 332.74 381.184 332.82C381.014 332.9 380.729 332.86 380.329 332.7C379.849 332.52 379.504 332.055 379.294 331.305C379.084 330.555 379.049 329.9 379.189 329.34C379.269 329 379.504 328.545 379.894 327.975C380.284 327.405 380.529 326.99 380.629 326.73C380.749 326.41 380.879 325.93 381.019 325.29C381.159 324.65 381.279 324.2 381.379 323.94C381.519 323.52 381.779 322.925 382.159 322.155C382.539 321.385 382.799 320.81 382.939 320.43C383.139 319.87 383.284 319.18 383.374 318.36C383.464 317.54 383.574 316.76 383.704 316.02C383.834 315.28 384.069 314.62 384.409 314.04C384.449 313.96 384.509 313.845 384.589 313.695C384.669 313.545 384.744 313.405 384.814 313.275C384.884 313.145 384.969 312.995 385.069 312.825C385.169 312.655 385.264 312.505 385.354 312.375C385.444 312.245 385.544 312.1 385.654 311.94C385.764 311.78 385.874 311.64 385.984 311.52C386.094 311.4 386.209 311.285 386.329 311.175C386.449 311.065 386.574 310.97 386.704 310.89C386.834 310.81 386.959 310.75 387.079 310.71C387.799 310.51 388.319 310.645 388.639 311.115C388.959 311.585 388.939 312.11 388.579 312.69C388.059 313.55 387.949 313.95 388.249 313.89C388.549 313.79 389.039 313.4 389.719 312.72C390.519 311.92 391.269 311.31 391.969 310.89C392.669 310.47 393.479 310.18 394.399 310.02C395.279 309.86 395.739 309.75 395.779 309.69C395.859 309.67 395.939 309.72 396.019 309.84C396.099 309.96 396.179 310.13 396.259 310.35C396.319 310.57 396.379 310.82 396.439 311.1C396.479 311.4 396.519 311.7 396.559 312C396.599 312.3 396.619 312.59 396.619 312.87C396.599 315.65 396.199 317.46 395.419 318.3C394.939 318.8 394.569 319.28 394.309 319.74C394.229 319.92 394.134 320.04 394.024 320.1C393.914 320.16 393.824 320.185 393.754 320.175C393.684 320.165 393.579 320.18 393.439 320.22C393.299 320.26 393.179 320.36 393.079 320.52C392.799 320.82 392.499 320.97 392.179 320.97C391.919 320.99 391.584 321.125 391.174 321.375C390.764 321.625 390.559 321.83 390.559 321.99C390.559 322.05 390.664 322.13 390.874 322.23C391.084 322.33 391.339 322.425 391.639 322.515C391.939 322.605 392.249 322.68 392.569 322.74C392.889 322.8 393.159 322.83 393.379 322.83C393.719 322.83 394.129 322.78 394.609 322.68C394.789 322.6 395.009 322.515 395.269 322.425C395.529 322.335 395.769 322.25 395.989 322.17C396.209 322.09 396.389 322.01 396.529 321.93C398.069 321.13 399.289 320.37 400.189 319.65ZM388.339 318.39C388.379 318.77 388.539 319.135 388.819 319.485C389.099 319.835 389.369 320.01 389.629 320.01C390.089 320.01 390.799 319.595 391.759 318.765C392.719 317.935 393.319 317.24 393.559 316.68C393.819 316.04 393.964 315.34 393.994 314.58C394.024 313.82 393.919 313.22 393.679 312.78C393.439 312.36 393.204 312.185 392.974 312.255C392.744 312.325 392.229 312.75 391.429 313.53C390.669 314.21 389.964 315.07 389.314 316.11C388.664 317.15 388.339 317.91 388.339 318.39ZM418.662 319.41C419.102 319.03 419.487 318.875 419.817 318.945C420.147 319.015 420.312 319.33 420.312 319.89C420.312 320.05 420.287 320.205 420.237 320.355C420.187 320.505 420.112 320.65 420.012 320.79C419.912 320.93 419.807 321.055 419.697 321.165C419.587 321.275 419.447 321.39 419.277 321.51C419.107 321.63 418.972 321.73 418.872 321.81C418.772 321.89 418.632 321.99 418.452 322.11C418.272 322.23 418.152 322.31 418.092 322.35C418.072 322.35 418.042 322.36 418.002 322.38C417.962 322.4 417.942 322.42 417.942 322.44C417.882 322.48 417.802 322.535 417.702 322.605C417.602 322.675 417.532 322.72 417.492 322.74C416.812 323.22 416.202 323.55 415.662 323.73C415.122 323.87 414.452 323.98 413.652 324.06C411.612 324.28 410.092 323.81 409.092 322.65C408.092 321.49 407.382 319.37 406.962 316.29C406.842 315.31 406.712 314.82 406.572 314.82C406.452 314.82 405.742 315.38 404.442 316.5C403.702 317.18 403.172 317.72 402.852 318.12C402.692 318.28 402.552 318.49 402.432 318.75C402.312 319.01 402.192 319.32 402.072 319.68C401.952 320.04 401.862 320.28 401.802 320.4C401.742 320.54 401.602 320.87 401.382 321.39L400.932 322.5C400.852 322.68 400.802 322.975 400.782 323.385C400.762 323.795 400.687 324.12 400.557 324.36C400.427 324.6 400.182 324.75 399.822 324.81C399.122 324.91 398.522 324.6 398.022 323.88C397.702 323.44 397.532 323.11 397.512 322.89C397.492 322.67 397.602 322.26 397.842 321.66C397.902 321.54 397.952 321.42 397.992 321.3C398.032 321.2 398.097 321.015 398.187 320.745C398.277 320.475 398.337 320.295 398.367 320.205C398.397 320.115 398.452 319.955 398.532 319.725C398.612 319.495 398.677 319.32 398.727 319.2C398.777 319.08 398.842 318.92 398.922 318.72C399.002 318.52 399.077 318.35 399.147 318.21C399.217 318.07 399.297 317.91 399.387 317.73C399.477 317.55 399.572 317.37 399.672 317.19C400.052 316.51 400.337 315.465 400.527 314.055C400.717 312.645 400.842 311.84 400.902 311.64C401.242 310.22 401.912 308.19 402.912 305.55C403.092 305.05 403.302 304.295 403.542 303.285C403.782 302.275 404.022 301.335 404.262 300.465C404.502 299.595 404.802 298.7 405.162 297.78C405.522 296.86 406.007 296.08 406.617 295.44C407.227 294.8 407.932 294.38 408.732 294.18C409.412 294.02 409.967 294.055 410.397 294.285C410.827 294.515 411.122 294.86 411.282 295.32C411.442 295.78 411.527 296.325 411.537 296.955C411.547 297.585 411.517 298.15 411.447 298.65C411.377 299.15 411.282 299.63 411.162 300.09C410.942 300.83 410.592 301.69 410.112 302.67C409.632 303.63 409.302 304.32 409.122 304.74C408.842 305.52 408.452 306.31 407.952 307.11C407.712 307.45 407.357 308.015 406.887 308.805C406.417 309.595 406.032 310.17 405.732 310.53C405.312 311.09 404.852 311.64 404.352 312.18C404.292 312.24 404.172 312.355 403.992 312.525C403.812 312.695 403.657 312.855 403.527 313.005C403.397 313.155 403.312 313.3 403.272 313.44C403.252 313.5 403.267 313.57 403.317 313.65C403.367 313.73 403.422 313.76 403.482 313.74C403.522 313.74 403.572 313.72 403.632 313.68C403.792 313.56 404.012 313.36 404.292 313.08C404.572 312.8 404.837 312.58 405.087 312.42C405.337 312.26 405.602 312.16 405.882 312.12C406.042 312.1 406.202 312.08 406.362 312.06C407.222 311.96 407.917 312.04 408.447 312.3C408.977 312.56 409.422 313.03 409.782 313.71C410.102 314.41 410.262 315.21 410.262 316.11C410.262 316.91 410.392 317.85 410.652 318.93C410.892 320.01 411.162 320.82 411.462 321.36C411.642 321.68 411.842 321.87 412.062 321.93C412.282 321.99 412.732 321.98 413.412 321.9C414.232 321.8 414.902 321.65 415.422 321.45C416.782 320.73 417.862 320.05 418.662 319.41ZM407.022 301.08C406.982 301.16 406.922 301.275 406.842 301.425C406.762 301.575 406.692 301.715 406.632 301.845C406.572 301.975 406.512 302.1 406.452 302.22C406.012 303.14 405.662 304.1 405.402 305.1C405.302 305.48 405.182 305.865 405.042 306.255C404.902 306.645 404.727 307.11 404.517 307.65C404.307 308.19 404.162 308.56 404.082 308.76C403.962 309.08 403.982 309.29 404.142 309.39C404.222 309.45 404.332 309.41 404.472 309.27C404.792 308.95 405.062 308.595 405.282 308.205C405.502 307.815 405.717 307.36 405.927 306.84C406.137 306.32 406.312 305.92 406.452 305.64C407.032 304.58 407.522 303.25 407.922 301.65C407.962 301.55 408.042 301.365 408.162 301.095C408.282 300.825 408.382 300.585 408.462 300.375C408.542 300.165 408.597 299.93 408.627 299.67C408.657 299.41 408.602 299.24 408.462 299.16C408.322 299.04 408.152 299.1 407.952 299.34C407.792 299.5 407.582 299.87 407.322 300.45C407.242 300.65 407.142 300.86 407.022 301.08ZM436.227 319.41C436.667 319.03 437.052 318.875 437.382 318.945C437.712 319.015 437.877 319.33 437.877 319.89C437.877 320.07 437.837 320.25 437.757 320.43C437.677 320.61 437.587 320.765 437.487 320.895C437.387 321.025 437.237 321.175 437.037 321.345C436.837 321.515 436.682 321.64 436.572 321.72C436.462 321.8 436.292 321.915 436.062 322.065C435.832 322.215 435.687 322.31 435.627 322.35C435.627 322.35 435.617 322.35 435.597 322.35C435.477 322.57 435.197 322.81 434.757 323.07C434.297 323.33 433.857 323.49 433.437 323.55C432.997 323.77 432.627 323.96 432.327 324.12C432.227 324.5 431.407 325.33 429.867 326.61C429.267 327.11 428.767 327.54 428.367 327.9C427.967 328.26 427.472 328.75 426.882 329.37C426.292 329.99 425.837 330.605 425.517 331.215C425.197 331.825 425.027 332.4 425.007 332.94C425.007 333.18 424.667 333.46 423.987 333.78C423.547 334.02 423.222 334.14 423.012 334.14C422.802 334.14 422.457 334.03 421.977 333.81C421.357 333.51 420.957 333.07 420.777 332.49C420.677 331.91 420.677 331.43 420.777 331.05C420.877 330.67 421.102 330.275 421.452 329.865C421.802 329.455 422.157 329.11 422.517 328.83C422.877 328.55 423.247 328.215 423.627 327.825C424.007 327.435 424.277 327.07 424.437 326.73C424.757 326.05 425.037 325.59 425.277 325.35C425.557 325.09 425.667 324.725 425.607 324.255C425.547 323.785 425.347 323.46 425.007 323.28C424.627 323.06 424.037 323.12 423.237 323.46C421.937 323.98 420.832 323.9 419.922 323.22C419.012 322.54 418.467 321.39 418.287 319.77C418.187 318.97 418.292 317.875 418.602 316.485C418.912 315.095 419.057 314.08 419.037 313.44C419.017 312.62 419.147 311.76 419.427 310.86C419.707 309.96 420.137 309.3 420.717 308.88C421.357 308.44 422.027 308.405 422.727 308.775C423.427 309.145 423.807 309.71 423.867 310.47C423.887 310.87 423.787 311.46 423.567 312.24C423.367 312.86 423.012 313.855 422.502 315.225C421.992 316.595 421.647 317.65 421.467 318.39C421.287 319.07 421.202 319.63 421.212 320.07C421.222 320.51 421.337 320.73 421.557 320.73C422.297 320.73 423.387 319.9 424.827 318.24C426.267 316.58 427.117 315.16 427.377 313.98C427.517 313.36 427.677 312.94 427.857 312.72C428.077 312.42 428.317 311.8 428.577 310.86C428.897 309.82 429.477 308.85 430.317 307.95C430.817 307.43 431.227 307.08 431.547 306.9C431.847 306.72 432.227 306.63 432.687 306.63C433.427 306.63 433.857 306.78 433.977 307.08C434.077 307.28 434.082 307.615 433.992 308.085C433.902 308.555 433.787 308.985 433.647 309.375C433.507 309.765 433.352 310.195 433.182 310.665C433.012 311.135 432.917 311.48 432.897 311.7C432.837 312.06 432.777 312.31 432.717 312.45C432.677 312.57 432.537 312.82 432.297 313.2C431.897 313.84 431.557 314.595 431.277 315.465C430.997 316.335 430.737 317.32 430.497 318.42C430.257 319.52 430.047 320.34 429.867 320.88C429.547 321.92 429.427 322.47 429.507 322.53C429.547 322.59 430.097 322.385 431.157 321.915C432.217 321.445 433.287 320.94 434.367 320.4C435.447 319.86 436.067 319.53 436.227 319.41Z" fill="white"/>
</svg>
