<svg width="300" height="300" viewBox="0 0 300 300" fill="none" xmlns="http://www.w3.org/2000/svg">
<path d="M128.934 169.836C116.654 146.476 113.642 119.775 120.506 94.1684C126.406 72.1463 139.036 53.0674 156.65 39.1955C154.492 39.072 152.318 39 150.126 39C113.182 39 80.4543 57.0327 60.2503 84.7696C64.5586 124.588 92.0622 157.552 128.934 169.836Z" fill="white"/>
<path d="M156.599 178.336C130.227 177.29 105.598 166.546 86.8517 147.8C70.7262 131.675 60.5213 111.196 57.3174 88.9991C45.7438 106.538 39 127.541 39 150.126C39 166.2 42.4165 181.475 48.5601 195.268C85.2018 211.465 127.514 204.131 156.599 178.336Z" fill="white"/>
<path d="M177.791 158.629C163.699 180.946 142.082 196.904 116.475 203.764C107.478 206.176 98.3396 207.369 89.2632 207.369C76.1151 207.369 63.0905 204.865 50.7691 199.94C67.3783 233.004 99.9964 256.635 138.46 260.651C170.79 237.007 185.588 196.705 177.791 158.629Z" fill="white"/>
<path d="M171.318 130.423C183.598 153.782 186.61 180.483 179.746 206.09C173.846 228.112 161.216 247.188 143.601 261.063C145.759 261.186 147.934 261.258 150.122 261.258C187.066 261.258 219.794 243.226 239.998 215.489C235.69 175.671 208.189 142.706 171.318 130.423Z" fill="white"/>
<path d="M184.665 99.8077C169.184 103.955 155.206 111.543 143.574 121.919C169.977 122.945 194.636 133.692 213.4 152.455C229.525 168.58 239.73 189.059 242.934 211.256C254.508 193.717 261.252 172.714 261.252 150.129C261.252 134.052 257.832 118.777 251.692 104.981C230.63 95.64 207.208 93.7671 184.665 99.8077Z" fill="white"/>
<path d="M122.461 141.629C136.552 119.312 158.17 103.355 183.776 96.4941C205.809 90.5907 228.654 91.9937 249.486 100.322C232.88 67.2548 200.259 43.624 161.795 39.6072C129.466 63.2518 114.664 103.554 122.461 141.629Z" fill="white"/>
</svg>
